<?xml version="1.0" standalone="no"?>
<!DOCTYPE svg PUBLIC "-//W3C//DTD SVG 20010904//EN"
 "http://www.w3.org/TR/2001/REC-SVG-20010904/DTD/svg10.dtd">
<svg version="1.0" xmlns="http://www.w3.org/2000/svg"
 width="256.000000pt" height="256.000000pt" viewBox="0 0 256.000000 256.000000"
 preserveAspectRatio="xMidYMid meet">
<metadata>
Created by potrace 1.14, written by Peter Selinger 2001-2017
</metadata>
<g transform="translate(0.000000,256.000000) scale(0.100000,-0.100000)"
fill="#000000" stroke="none">
<path d="M887 2478 c-13 -13 -111 -185 -219 -383 -184 -339 -446 -818 -508
-930 -15 -27 -57 -105 -94 -171 l-66 -121 0 -377 0 -377 24 -24 24 -24 376 0
c337 0 377 2 395 17 15 14 151 246 151 259 0 2 31 58 69 126 37 67 90 163 116
212 84 157 92 167 128 163 30 -3 37 -12 120 -163 49 -88 110 -200 137 -250
125 -233 182 -331 200 -347 18 -15 60 -16 395 -17 350 0 376 1 397 19 l23 18
2 382 2 382 -31 57 c-17 31 -38 70 -48 86 -9 17 -33 59 -52 95 -32 59 -180
330 -248 455 -15 28 -80 147 -145 265 -65 118 -156 285 -203 370 -46 85 -98
180 -114 210 -52 97 -20 90 -440 90 l-369 0 -22 -22z m721 -148 c10 -19 32
-60 49 -90 17 -30 151 -275 298 -545 286 -523 298 -545 369 -674 25 -46 46
-87 46 -91 0 -4 -125 -7 -277 -6 l-278 1 -38 70 c-21 39 -55 102 -76 140 -21
39 -90 165 -153 280 -64 116 -130 237 -148 270 -73 136 -80 145 -120 145 -37
-1 -51 -16 -105 -115 -26 -49 -59 -110 -73 -135 -71 -129 -249 -453 -280 -510
-19 -36 -45 -83 -58 -105 l-22 -40 -276 -1 c-152 -1 -276 2 -276 7 0 7 81 156
427 789 47 85 101 183 119 218 19 34 43 77 53 95 10 18 42 77 72 132 29 55 62
114 72 130 10 17 20 38 23 47 3 9 13 18 22 20 8 2 150 3 313 3 l298 0 19 -35z
m-897 -1547 c0 -5 2 -135 2 -290 l2 -282 -110 -3 c-60 -2 -191 -1 -290 2
l-181 5 2 285 c1 157 2 285 3 286 7 6 571 2 572 -3z m1714 -273 c0 -151 -1
-281 -3 -288 -3 -9 -70 -12 -291 -12 l-286 0 1 283 c1 155 2 285 3 288 0 4
130 6 288 5 l288 -1 0 -275z"/>
</g>
</svg>
