<?xml version="1.0" standalone="no"?>
<!DOCTYPE svg PUBLIC "-//W3C//DTD SVG 20010904//EN"
 "http://www.w3.org/TR/2001/REC-SVG-20010904/DTD/svg10.dtd">
<svg version="1.0" xmlns="http://www.w3.org/2000/svg"
 width="1272.000000pt" height="1272.000000pt" viewBox="0 0 1272.000000 1272.000000"
 preserveAspectRatio="xMidYMid meet">
<metadata>
Created by potrace 1.14, written by Peter Selinger 2001-2017
</metadata>
<g transform="translate(0.000000,1272.000000) scale(0.100000,-0.100000)"
fill="#000000" stroke="none">
<path d="M3243 10833 c-3 -10 -25 -52 -48 -93 -23 -41 -60 -109 -82 -150 -22
-41 -49 -91 -60 -111 -40 -70 -57 -104 -55 -111 1 -5 -2 -8 -7 -8 -5 0 -14
-15 -22 -32 -7 -18 -16 -35 -19 -38 -3 -3 -15 -23 -26 -45 -11 -22 -37 -71
-59 -110 -21 -38 -45 -82 -52 -97 -8 -15 -18 -30 -24 -33 -5 -4 -9 -15 -9 -25
0 -10 -3 -20 -7 -22 -5 -1 -28 -41 -52 -88 -24 -47 -49 -92 -55 -100 -7 -8
-27 -46 -46 -85 -19 -38 -37 -72 -41 -75 -3 -3 -18 -30 -34 -60 -16 -30 -35
-66 -42 -80 -30 -54 -71 -129 -115 -210 -57 -107 -95 -176 -118 -215 -10 -16
-35 -64 -57 -105 -22 -41 -55 -102 -73 -135 -18 -33 -49 -89 -68 -125 -19 -36
-44 -81 -55 -100 -11 -19 -36 -64 -55 -100 -19 -36 -49 -90 -65 -120 -17 -30
-42 -77 -56 -105 -14 -27 -28 -52 -31 -55 -5 -5 -21 -35 -73 -135 -12 -22 -23
-42 -26 -45 -4 -3 -18 -30 -34 -60 -50 -101 -95 -182 -106 -193 -6 -6 -11 -19
-11 -29 0 -10 -4 -18 -9 -18 -5 0 -14 -15 -22 -32 -7 -18 -15 -35 -18 -38 -3
-3 -15 -23 -27 -45 -18 -36 -120 -222 -179 -330 -46 -83 -99 -182 -129 -240
-17 -33 -34 -62 -37 -65 -3 -3 -15 -25 -28 -50 -12 -25 -30 -58 -40 -75 -10
-16 -37 -66 -61 -110 -23 -44 -54 -100 -68 -125 -13 -25 -47 -88 -75 -140 -28
-52 -54 -97 -58 -100 -4 -3 -9 -12 -11 -20 -2 -8 -15 -34 -30 -60 -14 -25 -39
-70 -54 -100 -15 -30 -32 -58 -38 -62 -7 -5 -7 -8 -1 -8 6 0 6 -3 0 -8 -6 -4
-31 -45 -55 -92 -24 -47 -46 -87 -50 -90 -3 -3 -13 -21 -22 -40 -9 -19 -46
-89 -82 -154 -36 -66 -66 -123 -66 -128 0 -4 -5 -8 -12 -8 -6 0 -9 -3 -5 -6 3
-3 -5 -24 -19 -45 -13 -21 -24 -41 -24 -43 0 -2 -16 -33 -36 -68 -38 -67 -107
-193 -146 -268 -13 -25 -26 -46 -30 -48 -5 -2 -8 -9 -8 -16 0 -6 -11 -28 -25
-49 -14 -20 -23 -37 -20 -37 4 0 -2 -12 -13 -27 -10 -16 -28 -46 -39 -69 l-21
-41 52 -1 c28 -1 60 -2 71 -1 11 0 36 1 55 0 19 -1 41 -1 48 -1 28 0 163 0
177 0 29 0 165 0 178 0 6 0 33 1 59 2 27 2 48 0 48 -5 0 -4 5 -5 12 -1 17 11
78 12 84 2 3 -5 10 -6 15 -2 17 10 59 12 59 2 0 -5 6 -6 12 -1 18 10 190 10
206 0 7 -6 12 -6 12 0 0 5 19 8 43 6 23 -2 48 -3 55 -3 6 0 46 0 87 0 41 0 82
0 90 0 29 0 165 0 178 0 6 0 33 1 60 2 26 2 47 0 47 -5 0 -4 5 -5 12 -1 17 11
78 12 84 2 3 -5 10 -6 15 -2 17 10 59 12 59 2 0 -5 6 -6 12 -1 18 10 190 10
206 0 7 -6 12 -6 12 0 0 5 19 8 43 6 23 -2 48 -3 55 -3 6 0 46 0 87 0 41 0 82
0 90 0 29 0 165 0 178 0 6 0 33 1 60 2 26 2 47 0 47 -5 0 -4 5 -5 12 -1 17 11
78 12 84 2 3 -5 10 -6 15 -2 18 10 59 12 59 1 0 -6 5 -6 13 0 15 10 187 10
205 0 6 -5 12 -4 12 0 0 5 19 8 43 6 23 -2 49 -3 57 -3 8 0 31 0 50 1 54 0 80
8 80 24 0 8 5 15 12 15 6 0 8 3 5 6 -4 4 2 19 12 33 9 14 30 51 45 81 16 30
67 124 113 210 98 177 132 240 178 325 18 33 45 83 60 110 16 28 43 77 60 110
18 33 85 157 150 275 65 118 131 240 147 270 17 30 39 70 50 88 11 17 16 32
11 32 -4 0 -3 4 3 8 6 4 24 32 40 62 16 30 32 57 37 58 4 2 7 12 7 22 0 9 7
23 15 30 8 7 15 16 15 19 0 4 34 70 76 147 136 248 146 268 191 348 23 43 43
81 43 83 0 3 9 17 20 33 11 15 17 30 13 34 -3 3 -2 6 4 6 10 0 26 36 24 53 -1
4 3 7 8 7 5 0 24 28 41 63 17 34 44 85 59 112 15 28 45 82 66 120 21 39 50 93
65 120 15 28 39 70 52 95 14 25 66 120 116 212 51 92 92 172 92 178 0 5 5 10
11 10 5 0 7 5 4 10 -3 6 -2 10 2 10 5 0 16 17 26 38 10 20 33 64 52 97 19 33
48 87 65 120 17 33 39 74 50 91 23 39 85 154 119 219 14 28 28 52 31 55 3 3
12 18 20 35 8 16 33 64 56 105 22 41 63 116 89 165 27 50 53 93 59 97 6 4 8 8
4 8 -4 0 5 21 20 48 16 26 46 81 67 122 22 41 42 77 45 80 3 3 18 30 34 60 36
72 82 156 107 197 12 18 17 33 12 33 -4 0 -3 4 3 8 11 7 44 65 45 79 0 5 6 15
13 23 7 8 35 56 61 105 27 50 59 108 72 130 12 22 29 54 37 70 8 17 32 62 54
100 68 124 109 198 152 280 24 44 47 83 52 86 5 3 10 12 12 20 1 8 9 28 19 44
18 33 17 33 21 -50 0 -22 -2 -50 -6 -62 -4 -13 -3 -23 2 -23 5 0 5 -12 0 -30
-5 -16 -5 -32 -2 -34 9 -6 7 -109 -2 -125 -4 -6 -4 -16 0 -23 10 -15 10 -60 1
-75 -4 -7 -4 -14 1 -17 9 -5 8 -109 -2 -125 -4 -6 -4 -16 0 -23 10 -15 10 -60
1 -75 -4 -7 -4 -14 1 -17 9 -5 8 -109 -2 -125 -4 -6 -4 -16 0 -23 10 -15 10
-60 1 -75 -4 -7 -4 -14 1 -17 9 -5 8 -109 -2 -125 -4 -6 -4 -16 0 -23 10 -15
10 -60 1 -75 -4 -7 -4 -14 1 -17 9 -5 8 -109 -2 -125 -4 -6 -4 -16 0 -23 10
-15 10 -60 1 -75 -4 -7 -4 -14 1 -17 9 -5 8 -109 -2 -125 -4 -6 -4 -16 0 -23
10 -15 10 -60 1 -75 -4 -7 -4 -14 1 -17 9 -5 8 -109 -2 -125 -4 -6 -4 -16 0
-23 10 -16 11 -69 1 -75 -4 -2 -4 -9 0 -16 10 -16 10 -58 1 -63 -5 -3 -5 -10
-1 -17 10 -16 10 -58 1 -63 -5 -3 -5 -10 -1 -17 10 -16 10 -58 1 -63 -5 -3 -5
-10 -1 -17 10 -16 10 -58 1 -63 -5 -3 -5 -10 -1 -17 10 -16 10 -58 1 -63 -5
-3 -5 -10 -1 -17 10 -16 10 -58 1 -63 -5 -3 -5 -10 -1 -17 10 -16 10 -58 1
-63 -5 -3 -5 -10 -1 -17 10 -16 10 -58 1 -63 -5 -3 -5 -10 -1 -17 8 -14 8
-110 0 -124 -4 -6 -4 -13 0 -17 8 -7 8 -130 0 -143 -3 -5 -2 -14 2 -21 7 -12
5 -86 -4 -109 -2 -7 0 -13 6 -13 6 0 7 -5 3 -11 -9 -16 18 -30 33 -17 9 7 13
7 13 -1 0 -9 5 -9 20 -1 11 6 20 7 20 3 0 -4 43 -8 95 -8 52 0 95 4 95 8 0 5
5 5 12 1 17 -11 148 -11 148 0 0 5 5 5 13 0 6 -5 53 -8 102 -7 102 3 94 3 200
0 44 -1 88 1 97 6 9 4 19 3 22 -1 3 -5 27 -7 53 -5 56 5 57 5 105 1 20 -2 34
0 32 4 -3 5 6 4 19 -1 13 -5 30 -5 37 -1 8 5 18 6 23 3 15 -9 97 -9 97 0 0 4
5 5 12 1 17 -11 148 -11 148 0 0 5 5 5 13 0 6 -5 53 -8 102 -7 102 3 94 3 200
0 44 -1 88 1 97 6 9 4 19 3 22 -1 3 -5 27 -7 53 -5 56 5 57 5 105 1 20 -2 34
0 32 4 -3 5 6 4 19 -1 13 -5 30 -5 37 -1 8 5 18 6 23 3 15 -9 97 -9 97 0 0 4
5 5 12 1 17 -11 148 -11 148 0 0 5 5 5 13 0 6 -5 53 -8 102 -7 50 2 97 3 105
3 8 0 56 0 105 0 50 0 99 0 110 0 17 -1 71 -1 118 0 6 0 32 -1 56 -2 l45 -3 1
1495 c0 822 -1 1501 -3 1508 -3 9 -637 12 -3123 12 -2962 0 -3120 -1 -3126
-17z"/>
<path d="M9510 7837 c-13 -7 -31 -26 -40 -42 -25 -44 -207 -379 -248 -455 -20
-36 -40 -68 -46 -72 -6 -4 -8 -8 -4 -8 4 0 -4 -21 -19 -47 -14 -27 -31 -57
-37 -68 -6 -11 -13 -22 -16 -25 -3 -3 -19 -32 -36 -65 -74 -142 -89 -170 -96
-173 -5 -2 -8 -7 -8 -12 0 -7 -73 -145 -189 -355 -9 -16 -20 -33 -26 -37 -5
-4 -6 -8 -1 -8 4 0 1 -11 -8 -24 -18 -28 -39 -66 -82 -146 -16 -30 -31 -57
-34 -60 -3 -3 -20 -34 -38 -70 -18 -36 -43 -83 -55 -105 -13 -22 -40 -71 -61
-110 -21 -38 -56 -101 -77 -140 -21 -38 -51 -95 -66 -125 -16 -30 -30 -57 -33
-60 -6 -6 -13 -18 -80 -145 -29 -55 -56 -104 -61 -110 -4 -5 -31 -55 -59 -110
-29 -55 -58 -103 -64 -107 -6 -4 -7 -8 -2 -8 5 0 4 -6 -2 -12 -9 -13 -47 -81
-101 -183 -14 -27 -31 -56 -38 -63 -7 -8 -11 -18 -8 -23 4 -5 1 -9 -4 -9 -6 0
-11 -4 -11 -9 0 -5 -17 -40 -38 -78 -22 -37 -58 -104 -82 -148 -23 -44 -50
-93 -59 -110 -9 -16 -18 -32 -21 -35 -3 -3 -20 -34 -38 -70 -18 -36 -43 -83
-55 -105 -28 -49 -96 -174 -194 -355 -42 -77 -48 -87 -62 -104 -7 -9 -10 -16
-6 -16 4 0 0 -11 -9 -24 -19 -30 -42 -72 -87 -156 -18 -36 -36 -67 -39 -70 -3
-3 -20 -34 -39 -70 -32 -63 -66 -124 -119 -220 -14 -25 -37 -67 -51 -95 -14
-27 -29 -52 -33 -53 -5 -2 -8 -8 -8 -14 0 -5 -16 -38 -36 -74 -19 -35 -35 -66
-34 -70 1 -4 -2 -10 -7 -13 -5 -3 -16 -19 -25 -36 -8 -16 -36 -68 -62 -115
-26 -47 -54 -101 -64 -120 -9 -19 -19 -37 -22 -40 -3 -3 -18 -30 -34 -60 -16
-30 -38 -71 -49 -90 -11 -19 -38 -69 -59 -110 -22 -41 -43 -79 -48 -85 -4 -5
-31 -55 -60 -110 -54 -101 -59 -111 -120 -220 -19 -33 -40 -71 -47 -85 -7 -14
-13 -20 -14 -15 -1 9 0 96 1 155 0 14 -1 40 -3 58 -2 17 0 32 3 32 4 0 4 20 0
45 -4 24 -3 50 1 57 4 6 5 17 1 23 -9 14 -9 47 1 68 4 9 4 17 -1 17 -9 0 -8
53 2 69 4 5 3 12 -1 14 -10 6 -9 100 1 115 3 6 3 13 -2 15 -4 3 -6 23 -4 44 4
48 4 51 -1 91 -2 18 0 35 5 38 5 3 5 10 1 17 -9 14 -9 100 0 115 4 6 4 13 -1
15 -4 3 -6 23 -4 44 4 48 4 51 -1 91 -2 18 0 35 5 38 5 3 5 10 1 17 -9 14 -9
100 0 115 4 6 4 13 -1 15 -4 3 -6 23 -4 44 4 48 4 51 -1 91 -2 18 0 35 5 38 5
3 5 10 1 17 -9 14 -9 100 0 115 4 6 4 13 -1 15 -4 3 -6 23 -4 44 4 48 4 51 -1
91 -2 18 0 35 5 38 5 3 5 11 1 17 -10 16 -10 98 0 120 4 9 4 17 -1 17 -8 0 -8
58 1 66 3 3 2 18 -3 32 -4 15 -3 37 1 50 5 12 5 22 1 22 -5 0 -7 15 -5 33 2
17 4 37 4 42 0 6 -2 25 -4 43 -2 17 1 32 5 32 5 0 5 8 0 18 -9 20 -8 113 2
130 4 7 3 12 -1 12 -5 0 -8 15 -6 33 5 40 4 90 -2 95 -2 3 0 13 5 23 6 10 6
20 2 23 -9 6 -7 59 3 75 3 6 2 11 -2 11 -10 0 -9 53 1 69 4 5 3 12 -2 15 -9 5
-8 109 2 125 4 6 3 11 -1 11 -11 0 -8 53 2 71 5 7 4 10 -3 5 -6 -3 -13 -2 -16
3 -3 4 -20 6 -38 4 -18 -3 -40 -4 -48 -4 -8 1 -40 1 -70 1 -30 0 -59 0 -65 0
-5 0 -36 1 -67 3 -32 1 -58 -1 -58 -6 0 -4 -6 -5 -12 -1 -7 5 -49 7 -93 6 -94
-3 -85 -3 -157 1 -32 1 -58 -1 -58 -6 0 -4 -6 -5 -12 -1 -7 5 -49 7 -93 6 -94
-3 -85 -3 -157 1 -32 1 -58 -2 -58 -6 0 -6 -5 -6 -12 -1 -15 11 -129 11 -145
1 -7 -4 -14 -4 -16 0 -6 10 -99 9 -115 -1 -7 -4 -12 -4 -12 1 0 10 -211 10
-228 -1 -7 -4 -12 -4 -12 1 0 10 -122 9 -138 -1 -7 -4 -12 -4 -12 1 0 10 -91
10 -108 -1 -7 -4 -12 -4 -12 1 0 10 -181 10 -198 -1 -7 -4 -12 -4 -12 1 0 10
-82 9 -98 -1 -6 -3 -13 -3 -15 1 -6 10 -99 9 -115 -1 -7 -4 -12 -4 -12 1 0 10
-211 10 -228 -1 -7 -4 -12 -4 -12 1 0 10 -122 9 -138 -1 -7 -4 -12 -4 -12 1 0
10 -91 10 -108 -1 -7 -4 -12 -4 -12 1 0 10 -183 9 -199 -1 -6 -4 -11 -2 -11 4
0 7 -6 8 -18 1 -16 -9 -17 -90 -16 -1508 l0 -1498 3121 -3 3121 -2 12 30 c7
16 16 30 20 30 4 0 11 12 14 26 4 14 11 31 17 37 10 12 66 115 97 177 9 19 19
37 22 40 3 3 18 30 34 60 16 30 40 75 54 100 13 25 45 83 70 130 25 47 50 88
56 92 6 4 7 8 2 8 -5 0 -4 6 2 12 5 7 28 47 50 88 22 41 56 104 77 140 20 36
39 73 42 83 3 9 9 17 14 17 5 0 9 5 9 11 0 6 27 58 59 117 32 59 75 136 94
172 19 36 51 94 71 130 20 36 46 85 58 110 13 25 26 47 29 50 3 3 19 32 35 65
16 33 32 62 35 65 4 3 25 41 48 85 78 150 116 220 121 225 3 3 18 30 34 60 16
30 38 73 51 95 12 22 43 81 70 130 27 50 53 93 59 97 6 4 7 8 2 8 -5 0 -4 6 1
13 6 6 26 42 47 80 20 37 52 97 72 135 21 37 40 72 44 77 4 6 30 53 58 105 27
52 64 119 81 148 17 29 31 59 31 67 0 7 4 15 8 17 8 3 46 72 136 243 12 22 23
42 26 45 3 3 25 43 49 90 24 47 48 87 53 88 4 2 8 12 8 23 0 10 4 19 9 19 5 0
13 10 17 23 4 12 26 56 49 97 23 41 61 111 85 155 24 44 52 96 63 115 11 19
42 78 70 130 27 52 55 102 61 110 6 8 25 42 41 75 17 33 32 62 35 65 3 3 16
27 30 55 14 27 28 54 33 60 9 12 55 98 94 175 15 30 31 57 34 60 3 3 15 25 28
50 12 25 26 52 32 60 11 18 220 401 327 600 37 69 64 119 102 185 27 48 87
160 126 235 16 30 34 58 39 62 12 9 9 10 -25 12 -14 1 -31 5 -37 9 -7 5 -13 4
-13 -1 0 -10 -42 -8 -59 2 -5 4 -12 3 -14 -1 -6 -10 -119 -9 -135 1 -7 4 -12
3 -12 -2 0 -10 -30 -9 -48 2 -6 4 -12 4 -12 -1 0 -10 -91 -9 -108 1 -7 4 -12
4 -12 -1 0 -4 -20 -8 -45 -9 -25 0 -45 3 -45 7 0 5 -7 6 -16 2 -26 -10 -168
-10 -181 0 -7 5 -13 6 -13 1 0 -5 -45 -9 -100 -9 -55 0 -100 4 -100 8 0 5 -5
5 -11 1 -16 -10 -149 -11 -149 -1 0 5 -6 5 -12 1 -18 -11 -81 -11 -95 0 -8 5
-13 5 -13 -1 0 -11 -29 -11 -48 1 -6 4 -12 4 -12 -1 0 -10 -91 -9 -108 1 -7 4
-12 4 -12 -1 0 -4 -20 -8 -45 -9 -25 0 -45 3 -45 7 0 5 -7 6 -16 2 -26 -10
-168 -10 -181 0 -7 5 -13 6 -13 1 0 -5 -45 -9 -100 -9 -55 0 -100 4 -100 8 0
5 -5 5 -11 1 -16 -10 -149 -11 -149 -1 0 5 -6 5 -12 1 -18 -11 -81 -11 -95 0
-8 5 -13 5 -13 -1 0 -11 -29 -11 -48 1 -6 4 -12 4 -12 -1 0 -10 -91 -9 -108 1
-7 4 -12 4 -12 -1 0 -4 -20 -8 -45 -9 -25 0 -45 3 -45 7 0 5 -7 6 -16 2 -26
-10 -168 -10 -181 0 -7 5 -13 6 -13 1 0 -5 -45 -9 -100 -9 -55 0 -100 4 -100
8 0 5 -5 5 -11 1 -16 -10 -149 -11 -149 -1 0 5 -6 5 -12 1 -16 -10 -79 -12
-99 -2 -8 3 -26 1 -39 -5z"/>
</g>
</svg>
