
<svg width="111" height="65" viewBox="0 0 111 65" fill="none" xmlns="http://www.w3.org/2000/svg">
<rect x="36.2996" y="25.9942" width="9.53155" height="9.53155" rx="0.3955" fill="white"/>
<rect x="64.9148" y="25.9942" width="9.53155" height="9.53155" rx="0.3955" fill="white"/>
<path d="M50.4249 0C50.2081 0 50.0086 0.118231 49.9045 0.308374L37.5714 22.7431C37.355 23.1385 37.1401 23.6212 37.894 23.6212H46.1125C46.3292 23.6212 46.5287 23.503 46.6328 23.3129L54.4642 9.17767C54.8705 8.44445 55.9247 8.44445 56.3309 9.17767L64.1623 23.3129C64.2664 23.503 64.4659 23.6212 64.6827 23.6212H72.9011C73.5068 23.6212 73.4402 23.1385 73.2238 22.7431L60.8906 0.308374C60.7865 0.118231 60.587 0 60.3703 0H50.4249Z" fill="white"/>
<path opacity="0.6" d="M48.3235 25.4225C48.3074 25.4522 48.2989 25.525 48.2989 25.5588V35.3314C48.2989 35.5416 48.5795 35.6128 48.6798 35.428L54.8443 24.3426C55.0704 23.936 55.6552 23.936 55.8813 24.3426L62.0458 35.428C62.1461 35.6128 62.4266 35.5416 62.4266 35.3314V25.5588C62.4266 25.525 62.4182 25.4522 62.4021 25.4225L56.1145 13.8357C56.1145 13.8357 55.992 13.6171 55.9008 13.5388C55.747 13.3995 55.5541 13.336 55.3628 13.3382C55.1714 13.336 54.9786 13.3995 54.8248 13.5388C54.7336 13.6171 54.6111 13.8357 54.6111 13.8357L48.3235 25.4225Z" fill="white"/>
<path d="M28.3837 58.2862C28.3837 58.2372 28.384 58.1885 28.3846 58.1401H28.385C28.4541 54.0269 31.3635 51.6009 34.8315 51.6009C37.5338 51.6009 39.0497 52.8185 40.0007 53.8744C39.2232 54.7518 38.0098 56.1308 38.0098 56.1308C38.0098 56.1308 37.9345 56.003 37.8198 55.8746C37.2349 55.22 36.4595 54.5234 34.8315 54.5234C32.8984 54.5234 31.6167 56.1856 31.6167 58.2862C31.6167 60.3868 32.8984 62.0489 34.8315 62.0489C36.4595 62.0489 37.2349 61.3523 37.8198 60.6978C37.9345 60.5694 38.0098 60.4416 38.0098 60.4416C38.0098 60.4416 39.2232 61.8206 40.0007 62.698C39.0497 63.7539 37.5338 64.9715 34.8315 64.9715C31.3635 64.9715 28.4541 62.5821 28.385 58.5785H28.3846C28.384 58.53 28.3837 58.3352 28.3837 58.2862Z" fill="white"/>
<path fill-rule="evenodd" clip-rule="evenodd" d="M19.9462 59.8852L22.7771 64.8253H26.274L23.1656 59.6817C24.1648 59.435 24.9234 58.9786 25.4414 58.3125C25.9718 57.6464 26.237 56.8385 26.237 55.8887C26.237 55.0869 26.0582 54.3776 25.7005 53.7609C25.3427 53.1318 24.8062 52.6384 24.0908 52.2807C23.3753 51.923 22.4995 51.7441 21.4634 51.7441H16.0607V64.8253H19.2246V59.8852H19.9462ZM21.1859 57.7204H19.2246V54.4085H21.1859C21.8026 54.4085 22.259 54.5565 22.555 54.8525C22.8634 55.1486 23.0176 55.5556 23.0176 56.0737C23.0176 56.6164 22.8696 57.0296 22.5736 57.3134C22.2775 57.5847 21.815 57.7204 21.1859 57.7204Z" fill="white"/>
<path fill-rule="evenodd" clip-rule="evenodd" d="M4.82106 62.4385H9.7242L10.5383 64.8253H13.9057L9.11362 51.8366H5.46864L0.676514 64.8253H4.00695L4.82106 62.4385ZM7.28188 55.2226L8.91009 60.0332H5.63516L7.28188 55.2226Z" fill="white"/>
<path d="M53.8908 51.7441V64.8253H50.7084V59.3671H45.7497V64.8253H42.5858V51.7441H45.7497V56.8138H50.7084V51.7441H53.8908Z" fill="white"/>
<path d="M60.3392 64.8253V51.7441H57.1752V64.8253H60.3392Z" fill="white"/>
<path d="M73.033 51.7441V54.2605H69.4805V64.8253H66.2981V54.2605H62.7826V51.7441H73.033Z" fill="white"/>
<path d="M78.6407 56.9988V54.2605H83.6178V51.7441H75.4767V64.8253H83.6178V62.2905H78.6407V59.3856H83.0627V56.9988H78.6407Z" fill="white"/>
<path d="M110.085 51.7441V54.2605H106.533V64.8253H103.35V54.2605H99.8349V51.7441H110.085Z" fill="white"/>
<path d="M86.2323 58.1401C86.2317 58.1885 86.2314 58.2372 86.2314 58.2862C86.2314 58.3352 86.2317 58.53 86.2323 58.5785H86.2327C86.3018 62.5821 89.2112 64.9715 92.6793 64.9715C95.3815 64.9715 96.8974 63.7539 97.8485 62.698C97.0709 61.8206 95.8575 60.4416 95.8575 60.4416C95.8575 60.4416 95.7823 60.5694 95.6676 60.6978C95.0826 61.3523 94.3072 62.0489 92.6793 62.0489C90.7461 62.0489 89.4645 60.3868 89.4645 58.2862C89.4645 56.1856 90.7461 54.5234 92.6793 54.5234C94.3072 54.5234 95.0826 55.22 95.6676 55.8746C95.7823 56.003 95.8575 56.1308 95.8575 56.1308C95.8575 56.1308 97.0709 54.7518 97.8485 53.8744C96.8974 52.8185 95.3815 51.6009 92.6793 51.6009C89.2112 51.6009 86.3018 54.0269 86.2327 58.1401H86.2323Z" fill="white"/>
</svg>
