<svg id="Layer_1" data-name="Layer 1" xmlns="http://www.w3.org/2000/svg" viewBox="0 0 864 523.0984">
  <g>
    <path id="fullLogo" d="M142.4428,518.1343v2.6017H85.75v-2.6017c7.0872-5.43,8.5055-8.74,8.5055-12.2817,0-2.8366-.9485-5.9037-2.6017-10.8678l-7.557-21.9661H32.1248l-4.96,14.4091c-1.6532,4.7248-2.5973,8.2661-2.5973,11.5726,0,6.143,4.0156,9.45,17.4807,19.1339v2.6017H0v-2.6017c10.1587-11.3377,13.23-16.5322,18.19-30.7065L55.2787,379.0023H87.4035l39.4512,114.5686C130.6309,504.6736,133.2327,509.159,142.4428,518.1343ZM81.7346,465.6966,58.1109,396.0088,34.4871,465.6966Z" style="fill: #fff"/>
    <path id="fullLogo-2" data-name="fullLogo" d="M233.0641,417.9793v29.2881l-1.8882.7092c-19.843-9.4495-26.46-11.8119-32.1292-11.8119a20.508,20.508,0,0,0-5.9037.9485v63.0706c0,8.5054,1.179,9.9193,11.1027,17.9505v2.6017H150.62v-2.6017c8.74-7.0827,10.3935-9.6844,10.3935-17.0065V438.5271c0-8.0312-1.1789-10.1542-10.8633-19.6037v-2.5973H192.199l.7047,17.95c8.2705-14.6441,18.6641-20.3129,27.6393-20.3129A20.85,20.85,0,0,1,233.0641,417.9793Z" style="fill: #fff"/>
    <path id="fullLogo-3" data-name="fullLogo" d="M325.4759,437.583c-20.3128-13.4651-26.221-16.2972-32.36-16.2972-13.7045,0-18.899,12.0467-18.899,41.8091,0,29.2926,5.9037,44.6458,26.93,44.6458,12.7559,0,21.4962-5.43,27.8742-12.5166l1.8881,1.4139c-6.6128,15.8275-19.1339,26.46-42.2834,26.46-34.2522,0-49.8448-22.9146-49.8448-52.9164,0-35.1962,21.7357-56.2183,56.697-56.2183,9.9194,0,22.6753,1.8881,31.6506,3.5414l.2393,19.6081Z" style="fill: #fff"/>
    <path id="fullLogo-4" data-name="fullLogo" d="M451.032,518.1343v2.6017H397.8808v-2.6017c8.74-7.0827,10.3935-9.6844,10.3935-17.0065V445.6142c0-10.1542-3.7807-17.2413-15.8275-17.2413a25.3864,25.3864,0,0,0-17.0064,6.6129v66.142c0,7.3221,1.4183,9.9238,9.21,17.0065v2.6017h-51.733v-2.6017c8.74-7.0827,10.3936-9.6844,10.3936-17.0065V384.4318c0-8.501-1.4139-11.1027-11.5725-21.022v-2.5973H375.44v68.9743c6.6129-8.74,17.2458-15.8231,32.3641-15.8231,21.022,0,32.8339,11.8075,32.8339,32.599v54.5651C440.6384,508.45,442.2916,511.0516,451.032,518.1343Z" style="fill: #fff"/>
    <path id="fullLogo-5" data-name="fullLogo" d="M511.8377,518.1343v2.6017H458.9213v-2.6017c8.74-7.0827,10.3936-9.6844,10.3936-17.0065V438.5271c0-8.0312-1.179-10.1542-10.8634-19.6037v-2.5973h42.9926v84.8017C501.4441,508.45,503.0973,511.0516,511.8377,518.1343ZM466.0085,380.6556c0-9.6845,8.0312-17.0109,18.6641-17.0109,10.6284,0,18.66,7.3264,18.66,17.0109s-8.0312,17.0064-18.66,17.0064C474.04,397.662,466.0085,390.34,466.0085,380.6556Z" style="fill: #fff"/>
    <path id="fullLogo-6" data-name="fullLogo" d="M512.1656,416.3261H526.105l1.6532-28.8228H558.23v28.8228h25.5118v7.7918H558.23v70.8669c0,9.6888,4.49,15.3576,13.9393,15.3576a19.4609,19.4609,0,0,0,11.8119-3.7807l1.4139,1.6533c-3.7763,8.5054-12.9909,14.8834-28.5835,14.8834-20.7871,0-30.9457-11.577-30.9457-29.2926V424.1179h-13.7Z" style="fill: #fff"/>
    <path id="fullLogo-7" data-name="fullLogo" d="M683.0766,495.459l1.8926,1.179c-6.8522,16.776-21.7356,26.46-45.12,26.46-37.0889,0-54.57-24.098-54.57-53.86,0-31.1807,19.3733-55.2743,53.6255-55.2743,30.7064,0,46.5339,19.1339,46.5339,43.9367a40.3245,40.3245,0,0,1-.9441,9.9193l-64.7237.2393v3.3064c0,24.0936,8.9752,37.3238,31.65,37.3238C665.8353,508.6892,675.99,503.2553,683.0766,495.459Zm-63.3054-44.8807v9.4451h33.5431V447.9766c0-16.7715-2.5973-26.6908-15.5926-26.6908C624.0217,421.2858,619.7712,432.3885,619.7712,450.5783Z" style="fill: #fff"/>
    <path id="fullLogo-8" data-name="fullLogo" d="M781.2282,437.583c-20.3128-13.4651-26.221-16.2972-32.36-16.2972-13.7045,0-18.899,12.0467-18.899,41.8091,0,29.2926,5.9037,44.6458,26.93,44.6458,12.7559,0,21.4962-5.43,27.8742-12.5166l1.8881,1.4139c-6.6128,15.8275-19.1339,26.46-42.2834,26.46-34.2522,0-49.8448-22.9146-49.8448-52.9164,0-35.1962,21.7357-56.2183,56.697-56.2183,9.9194,0,22.6753,1.8881,31.6506,3.5414l.2393,19.6081Z" style="fill: #fff"/>
    <path id="fullLogo-9" data-name="fullLogo" d="M790.7708,416.3261H804.71l1.6532-28.8228h30.4715v28.8228h25.5119v7.7918H836.8349v70.8669c0,9.6888,4.49,15.3576,13.9394,15.3576a19.4606,19.4606,0,0,0,11.8118-3.7807L864,508.215c-3.7762,8.5054-12.9908,14.8834-28.5834,14.8834-20.7871,0-30.9458-11.577-30.9458-29.2926V424.1179h-13.7Z" style="fill: #fff"/>
    <path id="fullLogo-10" data-name="fullLogo" d="M529.9976,94.1977V0H334.875L233.0641,186.653H334.0027v94.1977H529.1253L630.936,94.1977Zm-101.7889,186.61V186.6447h-94.2L435.7916.0434V94.206h94.1995Z" style="fill: #fff"/>
  </g>
</svg>
