<svg width="176" height="33" viewBox="0 0 176 33" fill="none" xmlns="http://www.w3.org/2000/svg">
<path fill-rule="evenodd" clip-rule="evenodd" d="M12.4338 0.281738C12.1045 0.281738 11.8014 0.461419 11.6434 0.750347L0.110533 21.8338C0.0380105 21.9664 0 22.1151 0 22.2662V31.8168C0 32.3144 0.403392 32.7178 0.901002 32.7178H10.4516C10.8033 32.7178 11.1079 32.5163 11.2564 32.2225L16.4951 22.6413C16.7648 22.148 17.4732 22.148 17.7429 22.6413L22.9844 32.2277C23.1338 32.5187 23.4369 32.7178 23.7865 32.7178H33.3371C33.8347 32.7178 34.2381 32.3144 34.2381 31.8168V22.2662C34.2381 22.1151 34.2001 21.9664 34.1275 21.8338L22.5947 0.750347C22.4367 0.461419 22.1336 0.281738 21.8043 0.281738H12.4338ZM16.3288 9.66078L9.91783 21.3652H2.42085L12.968 2.08374H21.2701L31.8172 21.3652H24.3202L17.9093 9.66078C17.7511 9.3721 17.4482 9.19262 17.119 9.19262C16.7899 9.19262 16.4869 9.3721 16.3288 9.66078ZM9.55062 23.1672H1.802V30.9158H9.55062V23.1672ZM24.6875 23.1672H32.4361V30.9158H24.6875V23.1672Z" fill="url(#paint0_linear)"/>
<path d="M79.6895 18.7991C79.6895 18.7414 79.6899 18.684 79.6906 18.6269H79.691C79.7725 13.7782 83.2021 10.9185 87.2903 10.9185C90.4758 10.9185 92.2627 12.3537 93.3838 13.5985C92.4672 14.6328 91.0368 16.2584 91.0368 16.2584C91.0368 16.2584 90.9481 16.1076 90.8129 15.9563C90.1234 15.1847 89.2093 14.3636 87.2903 14.3636C85.0114 14.3636 83.5007 16.323 83.5007 18.7991C83.5007 21.2753 85.0114 23.2347 87.2903 23.2347C89.2093 23.2347 90.1234 22.4135 90.8129 21.6419C90.9481 21.4906 91.0368 21.3399 91.0368 21.3399C91.0368 21.3399 92.4672 22.9655 93.3838 23.9997C92.2627 25.2445 90.4758 26.6798 87.2903 26.6798C83.2021 26.6798 79.7725 23.8631 79.691 19.1436H79.6906C79.6899 19.0865 79.6895 18.8568 79.6895 18.7991Z" fill="#45BD75"/>
<path fill-rule="evenodd" clip-rule="evenodd" d="M69.7433 20.684L73.0804 26.5075H77.2026L73.5384 20.4441C74.7162 20.1533 75.6104 19.6153 76.2211 18.8301C76.8464 18.0449 77.159 17.0925 77.159 15.9729C77.159 15.0278 76.9482 14.1917 76.5265 13.4646C76.1048 12.7231 75.4723 12.1415 74.6289 11.7198C73.7856 11.2981 72.7532 11.0873 71.5318 11.0873H65.163V26.5075H68.8927V20.684H69.7433ZM71.2046 18.1322H68.8927V14.228H71.2046C71.9317 14.228 72.4697 14.4025 72.8186 14.7515C73.1822 15.1005 73.3639 15.5803 73.3639 16.191C73.3639 16.8308 73.1894 17.3179 72.8405 17.6523C72.4915 17.9722 71.9462 18.1322 71.2046 18.1322Z" fill="#45BD75"/>
<path fill-rule="evenodd" clip-rule="evenodd" d="M51.9136 23.6939H57.6935L58.6532 26.5075H62.6228L56.9738 11.1963H52.677L47.028 26.5075H50.954L51.9136 23.6939ZM54.8145 15.1877L56.7338 20.8585H52.8733L54.8145 15.1877Z" fill="#45BD75"/>
<path d="M109.758 11.0873V26.5075H106.006V20.0733H100.161V26.5075H96.4311V11.0873H100.161V17.0634H106.006V11.0873H109.758Z" fill="#45BD75"/>
<path d="M117.359 26.5075V11.0873H113.629V26.5075H117.359Z" fill="#45BD75"/>
<path d="M132.323 11.0873V14.0535H128.135V26.5075H124.383V14.0535H120.239V11.0873H132.323Z" fill="#45BD75"/>
<path d="M138.933 17.2815V14.0535H144.8V11.0873H135.203V26.5075H144.8V23.5194H138.933V20.0951H144.146V17.2815H138.933Z" fill="#45BD75"/>
<path d="M176 11.0873V14.0535H171.812V26.5075H168.061V14.0535H163.917V11.0873H176Z" fill="#45BD75"/>
<path d="M147.882 18.6269C147.881 18.684 147.881 18.7414 147.881 18.7991C147.881 18.8568 147.881 19.0865 147.882 19.1436H147.882C147.964 23.8631 151.394 26.6798 155.482 26.6798C158.667 26.6798 160.454 25.2445 161.575 23.9997C160.659 22.9655 159.228 21.3399 159.228 21.3399C159.228 21.3399 159.14 21.4906 159.004 21.6419C158.315 22.4135 157.401 23.2347 155.482 23.2347C153.203 23.2347 151.692 21.2753 151.692 18.7991C151.692 16.323 153.203 14.3636 155.482 14.3636C157.401 14.3636 158.315 15.1847 159.004 15.9563C159.14 16.1076 159.228 16.2584 159.228 16.2584C159.228 16.2584 160.659 14.6328 161.575 13.5985C160.454 12.3537 158.667 10.9185 155.482 10.9185C151.394 10.9185 147.964 13.7782 147.882 18.6269H147.882Z" fill="#45BD75"/>
<defs>
<linearGradient id="paint0_linear" x1="17.119" y1="33.1322" x2="5.28915" y2="18.583" gradientUnits="userSpaceOnUse">
<stop stop-color="#45BD75"/>
<stop offset="1" stop-color="#0FA755"/>
</linearGradient>
</defs>
</svg>
